STARTFONT 2.1
FONT _TernVMStwozero_14
COMMENT 
COMMENT This file has been generated with the IconEdit tool.
COMMENT The IconEdit tool can be downloaded from:  www.ramtex.dk.
COMMENT 
SIZE 20 75 75
FONTBOUNDINGBOX 23 20 0 0
STARTPROPERTIES 5
CHARSET_REGISTRY "ISO10646"
CHARSET_ENCODING "1"
DEFAULT_CHAR 32
FONT_DESCENT 0
FONT_ASCENT 20
ENDPROPERTIES
CHARS 197
STARTCHAR 0
ENCODING 32
SWIDTH 576 0
DWIDTH 12
BBX 1 1 0 19
BITMAP
00
ENDCHAR
STARTCHAR 1
ENCODING 33
SWIDTH 144 0
DWIDTH 3
BBX 2 14 0 4
BITMAP
C0
C0
C0
C0
C0
C0
C0
C0
C0
00
00
00
C0
C0
ENDCHAR
STARTCHAR 2
ENCODING 34
SWIDTH 336 0
DWIDTH 7
BBX 6 5 0 15
BITMAP
CC
CC
CC
CC
CC
ENDCHAR
STARTCHAR 3
ENCODING 35
SWIDTH 720 0
DWIDTH 15
BBX 14 13 0 3
BITMAP
0660
0660
0660
0660
7FFC
0CC0
0CC0
0CC0
FFF8
1980
1980
1980
1980
ENDCHAR
STARTCHAR 4
ENCODING 36
SWIDTH 432 0
DWIDTH 9
BBX 8 18 0 2
BITMAP
18
18
18
3F
7F
C0
C0
E0
78
1E
0F
03
03
C7
FE
7C
18
18
ENDCHAR
STARTCHAR 5
ENCODING 37
SWIDTH 864 0
DWIDTH 18
BBX 17 14 0 3
BITMAP
7C0C00
C60C00
C61C00
C63800
C67000
7CE000
01C000
039F00
073180
0E3180
1C3180
383180
301F00
300000
ENDCHAR
STARTCHAR 6
ENCODING 38
SWIDTH 624 0
DWIDTH 13
BBX 12 14 0 4
BITMAP
3C00
7E00
C700
C300
E300
7600
3C00
7C60
EE60
C760
C3C0
E3C0
7FF0
3E70
ENDCHAR
STARTCHAR 7
ENCODING 39
SWIDTH 144 0
DWIDTH 3
BBX 2 5 0 15
BITMAP
C0
C0
C0
C0
C0
ENDCHAR
STARTCHAR 8
ENCODING 40
SWIDTH 288 0
DWIDTH 6
BBX 5 19 0 1
BITMAP
18
38
60
60
60
C0
C0
C0
C0
C0
C0
C0
C0
60
60
60
30
18
18
ENDCHAR
STARTCHAR 9
ENCODING 41
SWIDTH 288 0
DWIDTH 6
BBX 5 19 0 1
BITMAP
C0
E0
30
30
30
18
18
18
18
18
18
18
18
30
30
30
60
C0
C0
ENDCHAR
STARTCHAR 10
ENCODING 42
SWIDTH 384 0
DWIDTH 8
BBX 7 6 0 13
BITMAP
10
10
FE
38
6C
44
ENDCHAR
STARTCHAR 11
ENCODING 43
SWIDTH 336 0
DWIDTH 7
BBX 6 6 0 7
BITMAP
30
30
FC
FC
30
30
ENDCHAR
STARTCHAR 12
ENCODING 44
SWIDTH 192 0
DWIDTH 4
BBX 3 6 0 1
BITMAP
E0
E0
E0
60
60
C0
ENDCHAR
STARTCHAR 13
ENCODING 45
SWIDTH 336 0
DWIDTH 7
BBX 6 2 0 9
BITMAP
FC
FC
ENDCHAR
STARTCHAR 14
ENCODING 46
SWIDTH 192 0
DWIDTH 4
BBX 3 3 0 4
BITMAP
E0
E0
E0
ENDCHAR
STARTCHAR 15
ENCODING 47
SWIDTH 336 0
DWIDTH 7
BBX 6 19 0 1
BITMAP
0C
0C
0C
0C
18
18
18
18
30
30
30
60
60
60
60
C0
C0
C0
C0
ENDCHAR
STARTCHAR 16
ENCODING 48
SWIDTH 432 0
DWIDTH 9
BBX 8 14 0 4
BITMAP
3C
7E
C3
C3
C3
C3
C3
C3
C3
C3
C3
C3
7E
3C
ENDCHAR
STARTCHAR 17
ENCODING 49
SWIDTH 336 0
DWIDTH 7
BBX 6 14 0 4
BITMAP
1C
3C
7C
EC
CC
0C
0C
0C
0C
0C
0C
0C
0C
0C
ENDCHAR
STARTCHAR 18
ENCODING 50
SWIDTH 432 0
DWIDTH 9
BBX 8 14 0 4
BITMAP
7C
FE
C7
03
03
07
0E
1C
38
70
E0
C0
FF
FF
ENDCHAR
STARTCHAR 19
ENCODING 51
SWIDTH 432 0
DWIDTH 9
BBX 8 14 0 4
BITMAP
7C
FE
C7
03
03
06
3C
3E
07
03
03
C7
FE
7C
ENDCHAR
STARTCHAR 20
ENCODING 52
SWIDTH 480 0
DWIDTH 10
BBX 9 14 0 4
BITMAP
0C00
0C00
1800
1800
3000
3000
6600
E600
C600
FF80
FF80
0600
0600
0600
ENDCHAR
STARTCHAR 21
ENCODING 53
SWIDTH 432 0
DWIDTH 9
BBX 8 14 0 4
BITMAP
FF   11111111
FF   11111111
C0   11000000 
C0	 11000000
C0	 11000000	
DC   11011100
FE   11111110
C7   11000111
03   00000011
03   00000011
03   00000011
C7   11000111
FE   11111110
7C   01111100
ENDCHAR
STARTCHAR 22
ENCODING 54
SWIDTH 480 0
DWIDTH 10
BBX 9 14 0 4
BITMAP
3F00
7F00
E000
E000
C000
DE00
FF00
E380
C180
C180
C180
E380
7F00
3E00
ENDCHAR
STARTCHAR 23
ENCODING 55
SWIDTH 384 0
DWIDTH 8
BBX 7 14 0 4
BITMAP
FE
FE
06
06
0C
0C
0C
18
18
18
30
30
60
60
ENDCHAR
STARTCHAR 24
ENCODING 56
SWIDTH 432 0
DWIDTH 9
BBX 8 14 0 4
BITMAP
3C
7E
E7
C3
C3
66
3C
7E
E7
C3
C3
E7
7E
3C
ENDCHAR
STARTCHAR 25
ENCODING 57
SWIDTH 480 0
DWIDTH 10
BBX 9 14 0 4
BITMAP
3E00
7F00
E380
C180
C180
E180
7F80
3F80
0300
0700
0E00
1C00
3800
3000
ENDCHAR
STARTCHAR 26
ENCODING 58
SWIDTH 192 0
DWIDTH 4
BBX 3 8 0 4
BITMAP
E0
E0
E0
00
00
E0
E0
E0
ENDCHAR
STARTCHAR 27
ENCODING 59
SWIDTH 192 0
DWIDTH 4
BBX 3 11 0 1
BITMAP
E0
E0
E0
00
00
E0
E0
E0
60
60
C0
ENDCHAR
STARTCHAR 28
ENCODING 60
SWIDTH 432 0
DWIDTH 9
BBX 8 9 0 6
BITMAP
03
0F
3C
70
E0
70
3C
0F
03
ENDCHAR
STARTCHAR 29
ENCODING 61
SWIDTH 288 0
DWIDTH 6
BBX 5 6 0 7
BITMAP
F8
F8
00
00
F8
F8
ENDCHAR
STARTCHAR 30
ENCODING 62
SWIDTH 432 0
DWIDTH 9
BBX 8 9 0 6
BITMAP
C0
F0
3C
0E
07
0E
3C
F0
C0
ENDCHAR
STARTCHAR 31
ENCODING 63
SWIDTH 432 0
DWIDTH 9
BBX 8 14 0 4
BITMAP
7C
FE
C7
03
03
07
0E
1C
18
18
00
00
18
18
ENDCHAR
STARTCHAR 32
ENCODING 64
SWIDTH 864 0
DWIDTH 18
BBX 17 18 0 0
BITMAP
0FF800
3FFE00
700700
600300
C3F180
C7F180
CE3180
CC3180
CC3180
CC3180
CC3180
CE3380
C7FF00
63DE00
700000
380000
1FF800
07F800
ENDCHAR
STARTCHAR 33
ENCODING 65
SWIDTH 576 0
DWIDTH 12
BBX 11 14 0 4
BITMAP
0E00
0E00
1B00
1B00
3180
3180
3180
60C0
60C0
7FC0
7FC0
E0E0
C060
C060
ENDCHAR
STARTCHAR 34
ENCODING 66
SWIDTH 480 0
DWIDTH 10
BBX 9 14 0 4
BITMAP
FE00
FF00
C380
C180
C180
C300
FE00
FF00
C380
C180
C180
C380
FF00
FE00
ENDCHAR
STARTCHAR 35
ENCODING 67
SWIDTH 432 0
DWIDTH 9
BBX 8 14 0 4
BITMAP
3E
7F
E3
C0
C0
C0
C0
C0
C0
C0
C0
E3
7F
3E
ENDCHAR
STARTCHAR 36
ENCODING 68
SWIDTH 480 0
DWIDTH 10
BBX 9 14 0 4
BITMAP
FE00
FF00
C300
C180
C180
C180
C180
C180
C180
C180
C180
C300
FF00
FE00
ENDCHAR
STARTCHAR 37
ENCODING 69
SWIDTH 384 0
DWIDTH 8
BBX 7 14 0 4
BITMAP
FE
FE
C0
C0
C0
C0
FC
FC
C0
C0
C0
C0
FE
FE
ENDCHAR
STARTCHAR 38
ENCODING 70
SWIDTH 384 0
DWIDTH 8
BBX 7 14 0 4
BITMAP
FE
FE
C0
C0
C0
C0
FE
FE
C0
C0
C0
C0
C0
C0
ENDCHAR
STARTCHAR 39
ENCODING 71
SWIDTH 480 0
DWIDTH 10
BBX 9 14 0 4
BITMAP
3F00
7F80
E180
C000
C000
C000
C780
C780
C180
C180
C180
E180
7F80
3F80
ENDCHAR
STARTCHAR 40
ENCODING 72
SWIDTH 480 0
DWIDTH 10
BBX 9 14 0 4
BITMAP
C180
C180
C180
C180
C180
C180
FF80
FF80
C180
C180
C180
C180
C180
C180
ENDCHAR
STARTCHAR 41
ENCODING 73
SWIDTH 240 0
DWIDTH 5
BBX 4 14 0 4
BITMAP
F0
F0
60
60
60
60
60
60
60
60
60
60
F0
F0
ENDCHAR
STARTCHAR 42
ENCODING 74
SWIDTH 336 0
DWIDTH 7
BBX 6 14 0 4
BITMAP
0C
0C
0C
0C
0C
0C
0C
0C
0C
0C
0C
CC
F8
70
ENDCHAR
STARTCHAR 43
ENCODING 75
SWIDTH 480 0
DWIDTH 10
BBX 9 14 0 4
BITMAP
C180
C380
C700
CE00
DC00
F800
F000
F000
F800
DC00
CE00
C700
C380
C180
ENDCHAR
STARTCHAR 44
ENCODING 76
SWIDTH 384 0
DWIDTH 8
BBX 7 14 0 4
BITMAP
C0
C0
C0
C0
C0
C0
C0
C0
C0
C0
C0
C0
FE
FE
ENDCHAR
STARTCHAR 45
ENCODING 77
SWIDTH 576 0
DWIDTH 12
BBX 11 14 0 4
BITMAP
C060
E0E0
E0E0
F1E0
F1E0
DB60
DB60
CE60
CE60
C460
C060
C060
C060
C060
ENDCHAR
STARTCHAR 46
ENCODING 78
SWIDTH 480 0
DWIDTH 10
BBX 9 14 0 4
BITMAP
C180
E180
E180
F180
F180
D980
D980
CD80
CD80
C780
C780
C380
C380
C180
ENDCHAR
STARTCHAR 47
ENCODING 79
SWIDTH 528 0
DWIDTH 11
BBX 10 14 0 4
BITMAP
3F00
7F80
E1C0
C0C0
C0C0
C0C0
C0C0
C0C0
C0C0
C0C0
C0C0
E1C0
7F80
3F00
ENDCHAR
STARTCHAR 48
ENCODING 80
SWIDTH 432 0
DWIDTH 9
BBX 8 14 0 4
BITMAP
FC
FE
C7
C3
C3
C3
C7
FE
FC
C0
C0
C0
C0
C0
ENDCHAR
STARTCHAR 49
ENCODING 81
SWIDTH 576 0
DWIDTH 12
BBX 11 15 0 3
BITMAP
3F00
7F80
6180
C0C0
C0C0
C0C0
C0C0
C0C0
C0C0
CCC0
C6C0
6380
7F80
3EC0
0060
ENDCHAR
STARTCHAR 50
ENCODING 82
SWIDTH 528 0
DWIDTH 11
BBX 10 14 0 4
BITMAP
FE00
FF00
C380
C180
C180
C380
FF00
FE00
DC00
CE00
C700
C380
C1C0
C0C0
ENDCHAR
STARTCHAR 51
ENCODING 83
SWIDTH 432 0
DWIDTH 9
BBX 8 14 0 4
BITMAP
3E
7F
E3
C0
C0
E0
7C
3E
07
03
03
C7
FE
7C
ENDCHAR
STARTCHAR 52
ENCODING 84
SWIDTH 432 0
DWIDTH 9
BBX 8 14 0 4
BITMAP
FF
FF
18
18
18
18
18
18
18
18
18
18
18
18
ENDCHAR
STARTCHAR 53
ENCODING 85
SWIDTH 480 0
DWIDTH 10
BBX 9 14 0 4
BITMAP
C180
C180
C180
C180
C180
C180
C180
C180
C180
C180
C180
E380
7F00
3E00
ENDCHAR
STARTCHAR 54
ENCODING 86
SWIDTH 528 0
DWIDTH 11
BBX 10 14 0 4
BITMAP
C0C0
C0C0
C0C0
C0C0
6180
6180
6180
3300
3300
3300
1E00
1E00
0C00
0C00
ENDCHAR
STARTCHAR 55
ENCODING 87
SWIDTH 816 0
DWIDTH 17
BBX 16 14 0 4
BITMAP
C003
C003
C183
C183
6186
63C6
63C6
324C
366C
366C
1E78
1C38
0C30
0C30
ENDCHAR
STARTCHAR 56
ENCODING 88
SWIDTH 480 0
DWIDTH 10
BBX 9 14 0 4
BITMAP
C180
C180
6300
6300
3600
3E00
1C00
1C00
3E00
3600
6300
6300
C180
C180
ENDCHAR
STARTCHAR 57
ENCODING 89
SWIDTH 528 0
DWIDTH 11
BBX 10 14 0 4
BITMAP
C0C0
C0C0
6180
6180
3300
3F00
1E00
0C00
0C00
0C00
0C00
0C00
0C00
0C00
ENDCHAR
STARTCHAR 58
ENCODING 90
SWIDTH 480 0
DWIDTH 10
BBX 9 14 0 4
BITMAP
FF80
FF80
0180
0180
0300
0700
0E00
1C00
3800
7000
E000
C000
FF80
FF80
ENDCHAR
STARTCHAR 59
ENCODING 91
SWIDTH 288 0
DWIDTH 6
BBX 4 20 1 0
BITMAP
F0
F0
C0
C0
C0
C0
C0
C0
C0
C0
C0
C0
C0
C0
C0
C0
C0
C0
F0
F0
ENDCHAR
STARTCHAR 60
ENCODING 92
SWIDTH 336 0
DWIDTH 7
BBX 6 19 0 1
BITMAP
C0
C0
C0
C0
60
60
60
60
30
30
30
18
18
18
18
0C
0C
0C
0C
ENDCHAR
STARTCHAR 61
ENCODING 93
SWIDTH 240 0
DWIDTH 5
BBX 4 20 0 0
BITMAP
F0
F0
30
30
30
30
30
30
30
30
30
30
30
30
30
30
30
30
F0
F0
ENDCHAR
STARTCHAR 62
ENCODING 94
SWIDTH 480 0
DWIDTH 10
BBX 9 4 0 16
BITMAP
1C00
3E00
6300
C180
ENDCHAR
STARTCHAR 63
ENCODING 95
SWIDTH 576 0
DWIDTH 12
BBX 1 1 0 19
BITMAP
00
ENDCHAR
STARTCHAR 64
ENCODING 96
SWIDTH 240 0
DWIDTH 5
BBX 4 3 0 16
BITMAP
C0
60
30
ENDCHAR
STARTCHAR 65
ENCODING 97
SWIDTH 432 0
DWIDTH 9
BBX 8 11 0 4
BITMAP
7C
7E
07
03
3F
7F
C3
C3
E3
7F
3D
ENDCHAR
STARTCHAR 66
ENCODING 98
SWIDTH 432 0
DWIDTH 9
BBX 8 14 0 4
BITMAP
C0
C0
C0
DC
FE
E7
C3
C3
C3
C3
C3
C7
FE
BC
ENDCHAR
STARTCHAR 67
ENCODING 99
SWIDTH 384 0
DWIDTH 8
BBX 7 11 0 4
BITMAP
3C
7E
E6
C0
C0
C0
C0
C0
E6
7E
3C
ENDCHAR
STARTCHAR 68
ENCODING 100
SWIDTH 432 0
DWIDTH 9
BBX 8 14 0 4
BITMAP
03
03
03
3B
7F
E7
C3
C3
C3
C3
C3
E3
7F
3D
ENDCHAR
STARTCHAR 69
ENCODING 101
SWIDTH 432 0
DWIDTH 9
BBX 8 11 0 4
BITMAP
3E
7F
E3
C3
FF
FF
C0
C0
E0
7F
3F
ENDCHAR
STARTCHAR 70
ENCODING 102
SWIDTH 384 0
DWIDTH 8
BBX 7 14 0 4
BITMAP
1E
3E
30
30
FE
FE
30
30
30
30
30
30
30
30
ENDCHAR
STARTCHAR 71
ENCODING 103
SWIDTH 432 0
DWIDTH 9
BBX 8 15 0 0
BITMAP
3D
7F
E7
C3
C3
C3
C3
E3
7F
3F
03
03
07
7E
7C
ENDCHAR
STARTCHAR 72
ENCODING 104
SWIDTH 432 0
DWIDTH 9
BBX 8 14 0 4
BITMAP
C0
C0
C0
DC
FE
E7
C3
C3
C3
C3
C3
C3
C3
C3
ENDCHAR
STARTCHAR 73
ENCODING 105
SWIDTH 240 0
DWIDTH 5
BBX 4 16 0 4
BITMAP
70
70
00
00
00
F0
F0
30
30
30
30
30
30
30
30
30
ENDCHAR
STARTCHAR 74
ENCODING 106
SWIDTH 240 0
DWIDTH 5
BBX 4 20 0 0
BITMAP
70
70
00
00
F0
F0
30
30
30
30
30
30
30
30
30
30
30
70
E0
C0
ENDCHAR
STARTCHAR 75
ENCODING 107
SWIDTH 432 0
DWIDTH 9
BBX 8 14 0 4
BITMAP
C0
C0
C0
C6
CE
DC
D8
F0
F0
F8
DC
CE
C7
C3
ENDCHAR
STARTCHAR 76
ENCODING 108
SWIDTH 240 0
DWIDTH 5
BBX 4 14 0 4
BITMAP
C0
C0
C0
C0
C0
C0
C0
C0
C0
C0
C0
C0
F0
70
ENDCHAR
STARTCHAR 77
ENCODING 109
SWIDTH 720 0
DWIDTH 15
BBX 14 11 0 4
BITMAP
DC70
FFF8
E79C
C30C
C30C
C30C
C30C
C30C
C30C
C30C
C30C
ENDCHAR
STARTCHAR 78
ENCODING 110
SWIDTH 432 0
DWIDTH 9
BBX 8 11 0 4
BITMAP
DC
FE
E7
C3
C3
C3
C3
C3
C3
C3
C3
ENDCHAR
STARTCHAR 79
ENCODING 111
SWIDTH 480 0
DWIDTH 10
BBX 9 11 0 4
BITMAP
3E00
7F00
E380
C180
C180
C180
C180
C180
E380
7F00
3E00
ENDCHAR
STARTCHAR 80
ENCODING 112
SWIDTH 432 0
DWIDTH 9
BBX 8 16 0 0
BITMAP
DC
FE
E7
C3
C3
C3
C3
C3
E7
FE
DC
C0
C0
C0
C0
C0
ENDCHAR
STARTCHAR 81
ENCODING 113
SWIDTH 432 0
DWIDTH 9
BBX 8 16 0 0
BITMAP
3F
7F
E3
C3
C3
C3
C3
C3
E7
7F
3F
03
03
03
03
03
ENDCHAR
STARTCHAR 82
ENCODING 114
SWIDTH 480 0
DWIDTH 10
BBX 9 11 0 4
BITMAP
F300
F780
3D80
3800
3000
3000
3000
3000
3000
FC00
FC00
ENDCHAR
STARTCHAR 83
ENCODING 115
SWIDTH 336 0
DWIDTH 7
BBX 6 11 0 4
BITMAP
7C
FC
C0
C0
E0
78
1C
0C
0C
FC
F8
ENDCHAR
STARTCHAR 84
ENCODING 116
SWIDTH 384 0
DWIDTH 8
BBX 7 13 0 4
BITMAP
30
30
30
FE
FE
30
30
30
30
30
38
1E
0E
ENDCHAR
STARTCHAR 85
ENCODING 117
SWIDTH 432 0
DWIDTH 9
BBX 8 11 0 4
BITMAP
C3
C3
C3
C3
C3
C3
C3
C3
E7
7F
3B
ENDCHAR
STARTCHAR 86
ENCODING 118
SWIDTH 480 0
DWIDTH 10
BBX 9 11 0 4
BITMAP
C180
C180
C180
E380
6300
6300
3600
3600
3600
1C00
1C00
ENDCHAR
STARTCHAR 87
ENCODING 119
SWIDTH 768 0
DWIDTH 16
BBX 15 11 0 4
BITMAP
C006
C006
C106
E38E
638C
628C
36D8
36D8
36D8
1C70
1C70
ENDCHAR
STARTCHAR 88
ENCODING 120
SWIDTH 432 0
DWIDTH 9
BBX 8 11 0 4
BITMAP
C3
C3
66
66
3C
3C
3C
66
66
C3
C3
ENDCHAR
STARTCHAR 89
ENCODING 121
SWIDTH 480 0
DWIDTH 10
BBX 9 15 0 0
BITMAP
C180
C180
C180
E380
6300
6300
7700
3600
3E00
1C00
0C00
0C00
1C00
F800
F000
ENDCHAR
STARTCHAR 90
ENCODING 122
SWIDTH 384 0
DWIDTH 8
BBX 7 11 0 4
BITMAP
FE
FE
06
0E
1C
38
70
E0
C0
FE
FE
ENDCHAR
STARTCHAR 91
ENCODING 123
SWIDTH 336 0
DWIDTH 7
BBX 6 19 0 1
BITMAP
1C
30
60
60
60
60
60
60
60
C0
C0
60
60
60
60
60
60
30
1C
ENDCHAR
STARTCHAR 92
ENCODING 124
SWIDTH 144 0
DWIDTH 3
BBX 1 20 1 0
BITMAP
80
80
80
80
80
80
80
80
80
80
80
80
80
80
80
80
80
80
80
80
ENDCHAR
STARTCHAR 93
ENCODING 125
SWIDTH 336 0
DWIDTH 7
BBX 6 19 0 1
BITMAP
E0
30
18
18
18
18
18
18
0C
0C
18
18
18
18
18
18
18
30
E0
ENDCHAR
STARTCHAR 94
ENCODING 126
SWIDTH 576 0
DWIDTH 12
BBX 11 4 0 12
BITMAP
3CE0
3CE0
E780
E780
ENDCHAR
STARTCHAR 95
ENCODING 162
SWIDTH 384 0
DWIDTH 8
BBX 7 17 0 1
BITMAP
18
18
18
3C
7E
E6
C0
C0
C0
C0
C0
E6
7E
3C
18
18
18
ENDCHAR
STARTCHAR 96
ENCODING 164
SWIDTH 576 0
DWIDTH 12
BBX 11 9 0 7
BITMAP
C060
EEE0
7FC0
3180
3180
3180
7FC0
EEE0
C060
ENDCHAR
STARTCHAR 97
ENCODING 165
SWIDTH 432 0
DWIDTH 9
BBX 8 14 0 4
BITMAP
C3
C3
66
66
3C
18
7E
7E
18
18
7E
7E
18
18
ENDCHAR
STARTCHAR 98
ENCODING 167
SWIDTH 480 0
DWIDTH 10
BBX 9 17 0 1
BITMAP
3E00
7F00
6300
6000
3000
7C00
CE00
C700
E380
7180
3980
1F00
0600
0300
6300
7F00
3E00
ENDCHAR
STARTCHAR 99
ENCODING 168
SWIDTH 432 0
DWIDTH 9
BBX 8 2 0 17
BITMAP
E7
E7
ENDCHAR
STARTCHAR 100
ENCODING 169
SWIDTH 528 0
DWIDTH 11
BBX 10 10 0 10
BITMAP
3F00
4080
9E40
B340
A040
A040
B340
9E40
4080
3F00
ENDCHAR
STARTCHAR 101
ENCODING 171
SWIDTH 480 0
DWIDTH 10
BBX 9 7 0 6
BITMAP
1980
3300
6600
CC00
6600
3300
1980
ENDCHAR
STARTCHAR 102
ENCODING 172
SWIDTH 432 0
DWIDTH 9
BBX 8 5 0 6
BITMAP
FF
FF
03
03
03
ENDCHAR
STARTCHAR 103
ENCODING 173
SWIDTH 336 0
DWIDTH 7
BBX 6 2 0 9
BITMAP
FC
FC
ENDCHAR
STARTCHAR 104
ENCODING 174
SWIDTH 528 0
DWIDTH 11
BBX 10 10 0 10
BITMAP
3F00
4080
BE40
B340
B340
BE40
B340
B340
4080
3F00
ENDCHAR
STARTCHAR 105
ENCODING 176
SWIDTH 384 0
DWIDTH 8
BBX 7 7 0 13
BITMAP
38
6C
C6
82
C6
6C
38
ENDCHAR
STARTCHAR 106
ENCODING 180
SWIDTH 240 0
DWIDTH 5
BBX 4 3 0 16
BITMAP
30
60
C0
ENDCHAR
STARTCHAR 107
ENCODING 184
SWIDTH 240 0
DWIDTH 5
BBX 4 4 0 0
BITMAP
40
70
30
E0
ENDCHAR
STARTCHAR 108
ENCODING 187
SWIDTH 480 0
DWIDTH 10
BBX 9 7 0 6
BITMAP
CC00
6600
3300
1980
3300
6600
CC00
ENDCHAR
STARTCHAR 109
ENCODING 193
SWIDTH 480 0
DWIDTH 10
BBX 9 16 0 4
BITMAP
0600
0C00
1800
0000
1C00
3E00
3600
3600
6300
6300
6300
7F00
FF80
C180
C180
C180
ENDCHAR
STARTCHAR 110
ENCODING 194
SWIDTH 480 0
DWIDTH 10
BBX 9 16 0 4
BITMAP
0800
1C00
3600
0000
1C00
3E00
3600
3600
6300
6300
6300
7F00
FF80
C180
C180
C180
ENDCHAR
STARTCHAR 111
ENCODING 196
SWIDTH 480 0
DWIDTH 10
BBX 9 16 0 4
BITMAP
E380
E380
0000
1C00
3E00
3600
3600
3600
6300
6300
6300
7F00
FF80
C180
C180
C180
ENDCHAR
STARTCHAR 112
ENCODING 199
SWIDTH 432 0
DWIDTH 9
BBX 8 18 0 0
BITMAP
3E
7F
E3
C0
C0
C0
C0
C0
C0
C0
C0
E3
7F
3E
08
0E
06
1C
ENDCHAR
STARTCHAR 113
ENCODING 201
SWIDTH 384 0
DWIDTH 8
BBX 7 16 0 4
BITMAP
0C
18
30
00
FE
FE
C0
C0
C0
FC
FC
C0
C0
C0
FE
FE
ENDCHAR
STARTCHAR 114
ENCODING 203
SWIDTH 384 0
DWIDTH 8
BBX 7 16 0 4
BITMAP
C6
C6
00
00
FE
FE
C0
C0
C0
FC
FC
C0
C0
C0
FE
FE
ENDCHAR
STARTCHAR 115
ENCODING 205
SWIDTH 240 0
DWIDTH 5
BBX 4 16 0 4
BITMAP
30
60
00
F0
F0
60
60
60
60
60
60
60
60
60
F0
F0
ENDCHAR
STARTCHAR 116
ENCODING 206
SWIDTH 336 0
DWIDTH 7
BBX 6 16 0 4
BITMAP
30
78
CC
00
78
78
30
30
30
30
30
30
30
30
78
78
ENDCHAR
STARTCHAR 117
ENCODING 211
SWIDTH 528 0
DWIDTH 11
BBX 10 16 0 4
BITMAP
0300
0600
0C00
0000
3F00
7F80
E1C0
C0C0
C0C0
C0C0
C0C0
C0C0
C0C0
E1C0
7F80
3F00
ENDCHAR
STARTCHAR 118
ENCODING 212
SWIDTH 528 0
DWIDTH 11
BBX 10 16 0 4
BITMAP
0C00
1E00
3300
0000
3F00
7F80
E1C0
C0C0
C0C0
C0C0
C0C0
C0C0
C0C0
E1C0
7F80
3F00
ENDCHAR
STARTCHAR 119
ENCODING 214
SWIDTH 528 0
DWIDTH 11
BBX 10 16 0 4
BITMAP
E1C0
E1C0
0000
0000
3F00
7F80
E1C0
C0C0
C0C0
C0C0
C0C0
C0C0
C0C0
E1C0
7F80
3F00
ENDCHAR
STARTCHAR 120
ENCODING 215
SWIDTH 432 0
DWIDTH 9
BBX 8 8 0 5
BITMAP
C3
66
3C
18
18
3C
66
C3
ENDCHAR
STARTCHAR 121
ENCODING 218
SWIDTH 480 0
DWIDTH 10
BBX 9 16 0 4
BITMAP
0600
0C00
1800
0000
C180
C180
C180
C180
C180
C180
C180
C180
C180
E380
7F00
3E00
ENDCHAR
STARTCHAR 122
ENCODING 220
SWIDTH 480 0
DWIDTH 10
BBX 9 16 0 4
BITMAP
E380
E380
0000
0000
C180
C180
C180
C180
C180
C180
C180
C180
C180
E380
7F00
3E00
ENDCHAR
STARTCHAR 123
ENCODING 221
SWIDTH 528 0
DWIDTH 11
BBX 10 16 0 4
BITMAP
0300
0600
0C00
C0C0
C0C0
6180
6180
3300
3F00
1E00
0C00
0C00
0C00
0C00
0C00
0C00
ENDCHAR
STARTCHAR 124
ENCODING 223
SWIDTH 432 0
DWIDTH 9
BBX 8 14 0 4
BITMAP
3C
7E
C7
C3
C3
C6
CC
CE
C7
C3
C3
C7
DE
DC
ENDCHAR
STARTCHAR 125
ENCODING 225
SWIDTH 432 0
DWIDTH 9
BBX 8 15 0 4
BITMAP
0C
18
30
00
7C
7E
07
03
3F
7F
C3
C3
E3
7F
3D
ENDCHAR
STARTCHAR 126
ENCODING 226
SWIDTH 432 0
DWIDTH 9
BBX 8 15 0 4
BITMAP
18
3C
66
00
7C
7E
07
03
3F
7F
C3
C3
E3
7F
3D
ENDCHAR
STARTCHAR 127
ENCODING 228
SWIDTH 432 0
DWIDTH 9
BBX 8 15 0 4
BITMAP
E7
E7
00
00
7C
7E
07
03
3F
7F
C3
C3
E3
7F
3D
ENDCHAR
STARTCHAR 128
ENCODING 231
SWIDTH 384 0
DWIDTH 8
BBX 7 15 0 0
BITMAP
3C
7E
E6
C0
C0
C0
C0
C0
E6
7E
3C
10
1C
0C
38
ENDCHAR
STARTCHAR 129
ENCODING 233
SWIDTH 432 0
DWIDTH 9
BBX 8 15 0 4
BITMAP
0C
18
30
00
3E
7F
E3
C3
FF
FF
C0
C0
E0
7F
3F
ENDCHAR
STARTCHAR 130
ENCODING 235
SWIDTH 432 0
DWIDTH 9
BBX 8 15 0 4
BITMAP
E7
E7
00
00
3E
7F
E3
C3
FF
FF
C0
C0
E0
7F
3F
ENDCHAR
STARTCHAR 131
ENCODING 237
SWIDTH 240 0
DWIDTH 5
BBX 4 15 0 4
BITMAP
30
60
C0
00
F0
F0
30
30
30
30
30
30
30
30
30
ENDCHAR
STARTCHAR 132
ENCODING 238
SWIDTH 288 0
DWIDTH 6
BBX 5 15 0 4
BITMAP
20
70
D8
00
F0
F0
30
30
30
30
30
30
30
30
30
ENDCHAR
STARTCHAR 133
ENCODING 243
SWIDTH 480 0
DWIDTH 10
BBX 9 15 0 4
BITMAP
0600
0C00
1800
0000
3E00
7F00
E380
C180
C180
C180
C180
C180
E380
7F00
3E00
ENDCHAR
STARTCHAR 134
ENCODING 244
SWIDTH 480 0
DWIDTH 10
BBX 9 15 0 4
BITMAP
0800
1C00
3600
0000
3E00
7F00
E380
C180
C180
C180
C180
C180
E380
7F00
3E00
ENDCHAR
STARTCHAR 135
ENCODING 246
SWIDTH 480 0
DWIDTH 10
BBX 9 15 0 4
BITMAP
E380
E380
0000
0000
3E00
7F00
E380
C180
C180
C180
C180
C180
E380
7F00
3E00
ENDCHAR
STARTCHAR 136
ENCODING 247
SWIDTH 480 0
DWIDTH 10
BBX 9 10 0 4
BITMAP
1C00
1C00
0000
0000
FF80
FF80
0000
0000
1C00
1C00
ENDCHAR
STARTCHAR 137
ENCODING 250
SWIDTH 432 0
DWIDTH 9
BBX 8 15 0 4
BITMAP
0C
18
30
00
C3
C3
C3
C3
C3
C3
C3
C3
E7
7F
3B
ENDCHAR
STARTCHAR 138
ENCODING 252
SWIDTH 432 0
DWIDTH 9
BBX 8 15 0 4
BITMAP
E7
E7
00
00
C3
C3
C3
C3
C3
C3
C3
C3
E7
7F
3B
ENDCHAR
STARTCHAR 139
ENCODING 253
SWIDTH 480 0
DWIDTH 10
BBX 9 19 0 0
BITMAP
0600
0C00
1800
0000
C180
C180
C180
E380
6300
6300
7700
3600
3E00
1C00
0C00
0C00
1C00
F800
F000
ENDCHAR
STARTCHAR 140
ENCODING 258
SWIDTH 480 0
DWIDTH 10
BBX 9 16 0 4
BITMAP
2200
3E00
1C00
0000
1C00
3E00
3600
3600
6300
6300
6300
7F00
FF80
C180
C180
C180
ENDCHAR
STARTCHAR 141
ENCODING 259
SWIDTH 432 0
DWIDTH 9
BBX 8 16 0 4
BITMAP
44
7C
38
00
00
7C
7E
07
03
3F
7F
C3
C3
E3
7F
3D
ENDCHAR
STARTCHAR 142
ENCODING 260
SWIDTH 576 0
DWIDTH 12
BBX 11 18 0 0
BITMAP
0E00
0E00
1B00
1B00
3180
3180
3180
60C0
60C0
7FC0
7FC0
E0E0
C060
C060
0080
0180
0180
00E0
ENDCHAR
STARTCHAR 143
ENCODING 261
SWIDTH 528 0
DWIDTH 11
BBX 10 15 0 0
BITMAP
7C00
7E00
0700
0300
3F00
7F00
C300
C300
E300
7F00
3D00
0100
0300
0300
01C0
ENDCHAR
STARTCHAR 144
ENCODING 262
SWIDTH 432 0
DWIDTH 9
BBX 8 16 0 4
BITMAP
0C
18
30
00
3E
7F
E3
C0
C0
C0
C0
C0
C0
E3
7F
3E
ENDCHAR
STARTCHAR 145
ENCODING 263
SWIDTH 384 0
DWIDTH 8
BBX 7 15 0 4
BITMAP
0C
18
30
00
3C
7E
E6
C0
C0
C0
C0
C0
E6
7E
3C
ENDCHAR
STARTCHAR 146
ENCODING 268
SWIDTH 432 0
DWIDTH 9
BBX 8 16 0 4
BITMAP
36
1C
08
00
3E
7F
E3
C0
C0
C0
C0
C0
C0
E3
7F
3E
ENDCHAR
STARTCHAR 147
ENCODING 269
SWIDTH 384 0
DWIDTH 8
BBX 7 15 0 4
BITMAP
6C
38
10
00
3C
7E
E6
C0
C0
C0
C0
C0
E6
7E
3C
ENDCHAR
STARTCHAR 148
ENCODING 270
SWIDTH 480 0
DWIDTH 10
BBX 9 16 0 4
BITMAP
6C00
3800
1000
0000
FC00
FF00
C300
C180
C180
C180
C180
C180
C180
C300
FF00
FC00
ENDCHAR
STARTCHAR 149
ENCODING 271
SWIDTH 576 0
DWIDTH 12
BBX 11 15 0 4
BITMAP
0060
0360
0320
0340
3B00
7F00
E700
C300
C300
C300
C300
C300
E300
7F00
3B00
ENDCHAR
STARTCHAR 150
ENCODING 272
SWIDTH 528 0
DWIDTH 11
BBX 10 14 0 4
BITMAP
7E00
7F80
6180
60C0
60C0
60C0
FCC0
FCC0
60C0
60C0
60C0
6180
7F80
7E00
ENDCHAR
STARTCHAR 151
ENCODING 273
SWIDTH 528 0
DWIDTH 11
BBX 10 14 0 4
BITMAP
0300
0FC0
0300
3B00
7F00
E700
C300
C300
C300
C300
C300
E300
7F00
3B00
ENDCHAR
STARTCHAR 152
ENCODING 280
SWIDTH 384 0
DWIDTH 8
BBX 7 18 0 0
BITMAP
FE
FE
C0
C0
C0
C0
FC
FC
C0
C0
C0
C0
FE
FE
08
18
18
0E
ENDCHAR
STARTCHAR 153
ENCODING 281
SWIDTH 432 0
DWIDTH 9
BBX 8 15 0 0
BITMAP
3E
7F
E3
C3
FF
FF
C0
C0
E0
7F
3F
04
0C
0C
07
ENDCHAR
STARTCHAR 154
ENCODING 282
SWIDTH 384 0
DWIDTH 8
BBX 7 16 0 4
BITMAP
6C
38
10
00
FE
FE
C0
C0
C0
FC
FC
C0
C0
C0
FE
FE
ENDCHAR
STARTCHAR 155
ENCODING 283
SWIDTH 432 0
DWIDTH 9
BBX 8 15 0 4
BITMAP
36
1C
08
00
3E
7F
E3
C3
FF
FF
C0
C0
E0
7F
3F
ENDCHAR
STARTCHAR 156
ENCODING 313
SWIDTH 384 0
DWIDTH 8
BBX 7 16 0 4
BITMAP
30
60
C0
00
C0
C0
C0
C0
C0
C0
C0
C0
C0
C0
FE
FE
ENDCHAR
STARTCHAR 157
ENCODING 314
SWIDTH 240 0
DWIDTH 5
BBX 4 16 0 4
BITMAP
60
C0
00
C0
C0
C0
C0
C0
C0
C0
C0
C0
C0
C0
F0
70
ENDCHAR
STARTCHAR 158
ENCODING 317
SWIDTH 384 0
DWIDTH 8
BBX 7 15 0 4
BITMAP
06
C6
CC
C0
C0
C0
C0
C0
C0
C0
C0
C0
C0
FE
FE
ENDCHAR
STARTCHAR 159
ENCODING 318
SWIDTH 336 0
DWIDTH 7
BBX 6 15 0 4
BITMAP
0C
CC
D8
C0
C0
C0
C0
C0
C0
C0
C0
C0
C0
F0
70
ENDCHAR
STARTCHAR 160
ENCODING 321
SWIDTH 432 0
DWIDTH 9
BBX 8 14 0 4
BITMAP
60
60
60
64
6C
78
F0
E0
60
60
60
60
7F
7F
ENDCHAR
STARTCHAR 161
ENCODING 322
SWIDTH 288 0
DWIDTH 6
BBX 5 14 0 4
BITMAP
60
60
60
60
68
78
70
E0
E0
60
60
60
78
38
ENDCHAR
STARTCHAR 162
ENCODING 323
SWIDTH 480 0
DWIDTH 10
BBX 9 16 0 4
BITMAP
0600
0C00
1800
0000
E180
E180
F180
F180
D980
D980
CD80
CD80
C780
C780
C380
C380
ENDCHAR
STARTCHAR 163
ENCODING 327
SWIDTH 480 0
DWIDTH 10
BBX 9 16 0 4
BITMAP
3600
1C00
0800
0000
E180
E180
F180
F180
D980
D980
CD80
CD80
C780
C780
C380
C380
ENDCHAR
STARTCHAR 164
ENCODING 328
SWIDTH 432 0
DWIDTH 9
BBX 8 15 0 4
BITMAP
6C
38
10
00
DC
FE
E7
C3
C3
C3
C3
C3
C3
C3
C3
ENDCHAR
STARTCHAR 165
ENCODING 336
SWIDTH 528 0
DWIDTH 11
BBX 10 16 0 4
BITMAP
1980
3300
6600
0000
3F00
7F80
E1C0
C0C0
C0C0
C0C0
C0C0
C0C0
C0C0
E1C0
7F80
3F00
ENDCHAR
STARTCHAR 166
ENCODING 337
SWIDTH 480 0
DWIDTH 10
BBX 9 15 0 4
BITMAP
1980
3300
6600
0000
3E00
7F00
E380
C180
C180
C180
C180
C180
E380
7F00
3E00
ENDCHAR
STARTCHAR 167
ENCODING 340
SWIDTH 480 0
DWIDTH 10
BBX 9 16 0 4
BITMAP
0C00
1800
3000
0000
FE00
FF00
C380
C180
C380
FF00
FC00
CE00
C700
C300
C380
C180
ENDCHAR
STARTCHAR 168
ENCODING 341
SWIDTH 480 0
DWIDTH 10
BBX 9 16 0 4
BITMAP
0600
0C00
1800
0000
0000
F300
F780
3D80
3800
3000
3000
3000
3000
3000
FC00
FC00
ENDCHAR
STARTCHAR 169
ENCODING 344
SWIDTH 480 0
DWIDTH 10
BBX 9 16 0 4
BITMAP
3600
1C00
0800
0000
FE00
FF00
C380
C180
C380
FF00
FC00
CE00
C700
C300
C380
C180
ENDCHAR
STARTCHAR 170
ENCODING 345
SWIDTH 480 0
DWIDTH 10
BBX 9 16 0 4
BITMAP
3600
1C00
0800
0000
0000
F300
F780
3D80
3800
3000
3000
3000
3000
3000
FC00
FC00
ENDCHAR
STARTCHAR 171
ENCODING 346
SWIDTH 432 0
DWIDTH 9
BBX 8 16 0 4
BITMAP
06
0C
18
00
7F
FF
C0
C0
F0
7C
1E
07
03
C3
FE
7C
ENDCHAR
STARTCHAR 172
ENCODING 347
SWIDTH 336 0
DWIDTH 7
BBX 6 15 0 4
BITMAP
0C
18
30
00
7C
FC
C0
C0
E0
78
1C
0C
0C
FC
F8
ENDCHAR
STARTCHAR 173
ENCODING 350
SWIDTH 432 0
DWIDTH 9
BBX 8 18 0 0
BITMAP
3E
7F
E3
C0
C0
E0
7C
3E
07
03
03
C7
FE
7C
10
1C
0C
38
ENDCHAR
STARTCHAR 174
ENCODING 351
SWIDTH 336 0
DWIDTH 7
BBX 6 15 0 0
BITMAP
7C
FC
C0
C0
E0
78
1C
0C
0C
FC
F8
20
38
18
70
ENDCHAR
STARTCHAR 175
ENCODING 352
SWIDTH 432 0
DWIDTH 9
BBX 8 16 0 4
BITMAP
36
1C
08
00
7F
FF
C0
C0
F0
7C
1E
07
03
C3
FE
7C
ENDCHAR
STARTCHAR 176
ENCODING 353
SWIDTH 336 0
DWIDTH 7
BBX 6 15 0 4
BITMAP
6C
38
10
00
7C
FC
C0
C0
E0
78
1C
0C
0C
FC
F8
ENDCHAR
STARTCHAR 177
ENCODING 354
SWIDTH 432 0
DWIDTH 9
BBX 8 18 0 0
BITMAP
FF
FF
18
18
18
18
18
18
18
18
18
18
18
18
00
18
18
30
ENDCHAR
STARTCHAR 178
ENCODING 355
SWIDTH 384 0
DWIDTH 8
BBX 7 17 0 0
BITMAP
30
30
30
FE
FE
30
30
30
30
30
38
1E
0E
00
18
18
30
ENDCHAR
STARTCHAR 179
ENCODING 356
SWIDTH 432 0
DWIDTH 9
BBX 8 16 0 4
BITMAP
66
3C
18
00
FF
FF
18
18
18
18
18
18
18
18
18
18
ENDCHAR
STARTCHAR 180
ENCODING 357
SWIDTH 432 0
DWIDTH 9
BBX 8 15 0 4
BITMAP
03
03
36
30
30
FE
FE
30
30
30
30
30
38
1E
0E
ENDCHAR
STARTCHAR 181
ENCODING 366
SWIDTH 480 0
DWIDTH 10
BBX 9 16 0 4
BITMAP
3C00
6600
3C00
0000
C180
C180
C180
C180
C180
C180
C180
C180
C180
E380
7F00
3E00
ENDCHAR
STARTCHAR 182
ENCODING 367
SWIDTH 432 0
DWIDTH 9
BBX 8 16 0 4
BITMAP
3C
42
3C
00
00
C3
C3
C3
C3
C3
C3
C3
C3
E7
7F
3B
ENDCHAR
STARTCHAR 183
ENCODING 368
SWIDTH 528 0
DWIDTH 11
BBX 10 16 0 4
BITMAP
0CC0
1980
3300
0000
C180
C180
C180
C180
C180
C180
C180
C180
C180
E380
7F00
3E00
ENDCHAR
STARTCHAR 184
ENCODING 369
SWIDTH 432 0
DWIDTH 9
BBX 8 16 0 4
BITMAP
33
66
CC
00
00
C3
C3
C3
C3
C3
C3
C3
C3
E7
7F
3B
ENDCHAR
STARTCHAR 185
ENCODING 377
SWIDTH 432 0
DWIDTH 9
BBX 8 16 0 4
BITMAP
06
0C
18
00
FF
FF
03
07
0E
1C
38
70
E0
C0
FE
FE
ENDCHAR
STARTCHAR 186
ENCODING 378
SWIDTH 384 0
DWIDTH 8
BBX 7 15 0 4
BITMAP
0C
18
30
00
FE
FE
06
0E
1C
38
70
E0
C0
FE
FE
ENDCHAR
STARTCHAR 187
ENCODING 379
SWIDTH 432 0
DWIDTH 9
BBX 8 16 0 4
BITMAP
1C
1C
00
00
FF
FF
03
07
0E
1C
38
70
E0
C0
FE
FE
ENDCHAR
STARTCHAR 188
ENCODING 380
SWIDTH 384 0
DWIDTH 8
BBX 7 15 0 4
BITMAP
38
38
00
00
FE
FE
06
0E
1C
38
70
E0
C0
FE
FE
ENDCHAR
STARTCHAR 189
ENCODING 381
SWIDTH 432 0
DWIDTH 9
BBX 8 16 0 4
BITMAP
36
1C
08
00
FF
FF
03
07
0E
1C
38
70
E0
C0
FE
FE
ENDCHAR
STARTCHAR 190
ENCODING 382
SWIDTH 384 0
DWIDTH 8
BBX 7 15 0 4
BITMAP
6C
38
10
00
FE
FE
06
0E
1C
38
70
E0
C0
FE
FE
ENDCHAR
STARTCHAR 191
ENCODING 711
SWIDTH 288 0
DWIDTH 6
BBX 5 3 0 15
BITMAP
D8
70
20
ENDCHAR
STARTCHAR 192
ENCODING 728
SWIDTH 288 0
DWIDTH 6
BBX 5 3 0 16
BITMAP
88
F8
70
ENDCHAR
STARTCHAR 193
ENCODING 729
SWIDTH 192 0
DWIDTH 4
BBX 3 2 0 18
BITMAP
E0
E0
ENDCHAR
STARTCHAR 194
ENCODING 731
SWIDTH 240 0
DWIDTH 5
BBX 4 4 0 0
BITMAP
40
C0
C0
70
ENDCHAR
STARTCHAR 195
ENCODING 732
SWIDTH 384 0
DWIDTH 8
BBX 7 2 0 17
BITMAP
76
DC
ENDCHAR
STARTCHAR 196
ENCODING 733
SWIDTH 432 0
DWIDTH 9
BBX 8 3 0 16
BITMAP
33
66
CC
ENDCHAR
ENDFONT
